<svg id="Capa_1" data-name="Capa 1" xmlns="http://www.w3.org/2000/svg" viewBox="0 0 229.55 229.52"><defs><style>.cls-1{fill:#0075fe;}.cls-2{fill:#fefefe;}</style></defs><title>check_input</title><path class="cls-1" d="M148.08,265.07c-28.63,0-57.27.13-85.9-.05-18.64-.11-27.18-8.44-27.24-27.11q-.27-88,0-176.11C35,44,43.47,35.77,61.56,35.72q88.05-.24,176.11,0c18,.05,26.47,8.33,26.53,26.2q.32,88.07,0,176.11c-.06,18.62-8.64,26.89-27.35,27C207.27,265.19,177.67,265.07,148.08,265.07Z" transform="translate(-34.81 -35.6)"/><path class="cls-2" d="M127.8,222.59c-2.33-2.17-4.11-3.73-5.78-5.39C106.09,201.43,90.38,185.44,74.15,170c-5.56-5.28-4.88-8.4.14-13.64,18.79-19.64,18.59-19.83,37.92-.5,12.93,12.92,12.89,12.89,24-1,20.23-25.32,40.66-50.47,60.65-76,4.84-6.16,7.78-8.87,15.39-2.54,20.4,17,20.72,16.44,3.73,37.57Q175.68,164,135.5,214.26C133.22,217.1,130.55,219.63,127.8,222.59Z" transform="translate(-34.81 -35.6)"/></svg>