<svg id="Capa_1" data-name="Capa 1" xmlns="http://www.w3.org/2000/svg" viewBox="0 0 217.96 218"><defs><style>.cls-1{fill:#767676;}.cls-2{fill:#fefefe;}</style></defs><title>no_check_input</title><path class="cls-1" d="M43.28,148.5c0-25-.11-49.91,0-74.86.14-23,10.55-33.52,33.13-33.57q75.54-.15,151.08,0c22.73,0,33.49,10.55,33.56,33.16q.23,76.21,0,152.44c-.06,20.89-10.84,32-31.8,32.13q-76.89.4-153.79,0c-21.67-.1-32.09-11.14-32.19-33.1C43.2,199.31,43.28,173.9,43.28,148.5Z" transform="translate(-43.24 -40)"/><path class="cls-2" d="M54.18,148.94c0-25-.06-49.92,0-74.88C54.25,56.57,59.57,51,76.63,51q75.56-.15,151.11,0c17.06,0,22.45,5.61,22.48,23.09q.1,74.88,0,149.75c0,17.41-5.5,23.11-22.49,23.15q-75.55.16-151.11,0c-17,0-22.36-5.71-22.42-23.16C54.12,198.86,54.18,173.9,54.18,148.94Z" transform="translate(-43.24 -40)"/></svg>