<svg id="Capa_1" data-name="Capa 1" xmlns="http://www.w3.org/2000/svg" viewBox="0 0 1048.17 1018"><defs><style>.cls-1{fill:#c0c7d1;}</style></defs><title>planilla-seguro-ico</title><path class="cls-1" d="M774.35,761.81c12.12,6.25,22.9,11.94,33.82,17.37,4.05,2,3.61,5.28,3.61,8.66q0,120.42-.08,240.85c0,14-7.54,20.27-23.42,20.28q-101.16.08-202.32,0H52.65c-21.44,0-26.81-5.25-26.81-26.14q0-446.47,0-892.95c0-21,5.32-26.13,26.8-26.13,44.06,0,88.11.18,132.16-.17,7.55-.06,9.69,1.76,9.65,9.26-.16,27.26.16,27.26-28.37,27.26-26.51,0-53-.05-79.52,0-16.69,0-23.29,6.44-23.29,22.71q0,413.54,0,827.06c0,16.3,6.58,22.71,23.29,22.72q332.15,0,664.29,0c17.15,0,23.48-6.42,23.48-23.68q.06-106.79,0-213.58Z" transform="translate(-25.83 -31)"/><path class="cls-1" d="M418.21,176.47c-58.81,0-117.63-.16-176.43.19-8,.05-10.52-1.61-10.32-9.77.6-25.34.18-50.69.23-76,0-17.16,6.32-23.38,23.69-23.42,22.2-.06,44.4.07,66.6-.06,13.82-.07,19.84-5.25,22-18.3,2-12.37,8.2-17.91,21.11-18q53.74-.22,107.49,0c13,.05,19,5.46,21.07,18,2.2,13.08,8.18,18.21,22,18.29,22.2.13,44.4,0,66.6.05,16.91,0,23.62,6.32,23.67,22.3.09,26.11-.29,52.22.23,78.32.14,7.28-2.19,8.61-9.15,8.58C537.39,176.35,477.8,176.47,418.21,176.47Z" transform="translate(-25.83 -31)"/><path class="cls-1" d="M774.35,290.6V166.75c0-21.6-5.2-26.63-27.45-26.63-31.55,0-63.1-.22-94.65.16-7.07.09-9.1-1.48-9.1-8.64,0-27.87-.32-27.87,28.87-27.87q57.84,0,115.68,0c17.54,0,24,6.24,24,23.09,0,44.26-.12,88.53.17,132.8,0,6.39-1.74,10.29-7.64,13.39C794.52,278.2,785.22,284.16,774.35,290.6Z" transform="translate(-25.83 -31)"/><path class="cls-1" d="M1062.9,416.21Q960.23,355.6,858.24,293.89c-6.49-3.92-10.89-4.27-17.64-.2Q736.58,356.5,632,418.41c-5.87,3.48-7.61,7.23-7.19,13.51,1.38,20.76,3,41.51,6.94,62C655.4,615.06,724.29,702,840,753.57c6.67,3,12.28,2.72,18.76-.11,27.81-12.13,54-26.84,77.84-45.33,89.91-69.72,130.84-162.65,136.6-273.83C1075.91,426.27,1071.42,421.24,1062.9,416.21Zm-28.76,40c-12.77,114.58-67.93,202.05-174.61,256.49-8.56,4.37-16.24,2.81-24.3-1.42C743.8,663.27,689,589.36,669.3,490.55c-2.28-11.48-3.4-23.18-5-34.79-1.22-8.84,2.37-15.31,10.16-20q81.45-48.63,162.82-97.39c8.17-4.89,16.11-4.64,24.12.15q80.94,48.35,161.89,96.66C1031.4,440.05,1035.64,446.55,1034.14,456.16Z" transform="translate(-25.83 -31)"/><path class="cls-1" d="M231.67,448.17c0,19.14,0,19.14-20,19.14-17.37,0-17.37,0-17.37-17.21,0-19.14,0-19.14,20.05-19.14C231.67,431,231.67,431,231.67,448.17Z" transform="translate(-25.83 -31)"/><path class="cls-1" d="M194.25,593.66c0-17.28,0-17.28,18.47-17.28,18.95,0,18.95,0,18.95,17.94,0,18.41,0,18.41-18.47,18.41C194.25,612.74,194.25,612.74,194.25,593.66Z" transform="translate(-25.83 -31)"/><path class="cls-1" d="M231.67,739.23c0,18.92,0,18.92-19.1,18.93-18.32,0-18.32,0-18.32-17.43,0-18.93,0-18.93,19.11-18.93C231.67,721.8,231.67,721.8,231.67,739.23Z" transform="translate(-25.83 -31)"/><path class="cls-1" d="M988.25,457.06c-43.7-26.13-87.54-52-131-78.47-6.38-3.87-10.52-3.28-16.45.34-35.9,21.86-72.16,43.17-108.07,65-10.06,6.13-25.32,9.32-28.54,19.62-3.14,10,2.17,22.89,4.94,34.23,18.65,76.28,62.23,134.93,132,174.87,4.39,2.51,7.88,4.71,13.62,1.45,81.94-46.59,127-116.63,140.69-208.26C997.47,460.76,992,459.32,988.25,457.06Zm-53.18,43.48c-29.78,28.89-59.45,57.9-89.35,86.68-10.55,10.15-19.83,10-30.46,0Q798.08,571,781.38,554.26c-9-9-9.33-19.49-1.37-27.1s18.36-7,28,1.68c.85.77,1.61,1.66,2.5,2.38,7.08,5.75,12.21,17.54,20.38,16.95,6.87-.5,13.12-10.68,19.44-16.78,19.91-19.22,39.66-38.58,59.58-57.77,6-5.76,12.94-8.24,21.25-4.72,7.61,3.23,11.16,9,11.62,16.05C942.56,491.86,939.33,496.41,935.07,500.54Z" transform="translate(-25.83 -31)"/><path class="cls-1" d="M737,741.93c0-4-.71-7-4.17-9.85-11-9-21.54-18.49-32.27-27.79-6.16,15.14-9.75,17.51-26.83,17.51H332.23c-3.12,0-6.33.33-9.34-.24-10-1.91-16.15-7.85-16.19-17.9s6.1-16,16.09-18c3.38-.65,7-.24,10.5-.24q168.39,0,336.79-.07c3.92,0,8.2,1.15,11.89-1.24-6.77-8.65-14-16.31-19.25-25-5.05-8.37-11.34-10.25-20.86-10.22-102.91.36-205.82.23-308.73.22-3.51,0-7.12.38-10.5-.29-10-2-16.05-8-15.93-18.1s6.32-16,16.35-17.75c3.4-.61,7-.21,10.5-.21H633.13c-4.37-9.63-8.49-17.35-11.39-25.48s-7-11.22-16.59-11.16c-90.43.49-180.87.3-271.3.28-3.89,0-7.93.44-11.65-.37-9.95-2.15-15.82-8.39-15.51-18.44.28-9.5,6.2-15.28,15.65-17.21,3.37-.69,7-.32,10.49-.32h252.6c18.46,0,18.45,0,14.15-18-.7-2.94-1.7-5.91-1.77-8.88-.19-8.57-5-9.71-12.78-9.68-83.81.28-167.62.18-251.43.17-3.51,0-7.1.39-10.5-.22-10-1.77-16-7.68-16.48-17.72-.49-9.41,6.92-17.15,17.11-18.29a83.22,83.22,0,0,1,9.35-.12H563.46c26.54,0,25.91,0,24.86-25.52-.41-9.92-4.13-11.06-13-11-80.68.35-161.38.21-242.07.2-3.5,0-7.11.38-10.49-.27-10-1.94-16.1-8-16-18s6.22-16,16.24-17.84c3.4-.62,7-.22,10.51-.22q128.63,0,257.26-.06c4.18,0,8.52,1,12.53-1.39,18.3-11.06,36.64-22,58-34.9H164.68c-17.79,0-26.73-6.21-26.55-18.43.17-12.06,9-17.93,27-17.93H288q193,0,385.91,0c6.67,0,14.8-1.24,18.48,4.54,7.21,11.33,13.44,5.91,20.74,1a149.16,149.16,0,0,1,16.95-10c5.09-2.55,7.06-5.81,7-11.57q-.4-60.76,0-121.54c.06-6.74-2.3-8-8.61-7.92-24.94.32-49.91.65-74.83-.14-9.42-.3-10.65,2.88-10.47,10.81.46,20.71-5.26,25.81-27,25.81H223.26c-24.21,0-29.09-4.23-28.79-27.41.1-7.77-2.51-9.22-9.8-9.1-24.56.42-49.13.66-73.67-.1-9.31-.29-10.5,2.8-10.49,10.78q.31,389.07-.09,778.14c0,9.93,3,11.38,12.28,11.35Q277,976,441.31,976.28q142.68,0,285.34,0c5.07,0,10.51,2,10.47-7.13C736.76,893.4,736.9,817.66,737,741.93ZM154,249.5c3.37-.68,7-.31,10.48-.31H672.81c3.51,0,7.11-.39,10.49.27,10,1.95,16.07,8,16,18s-6.2,16-16.24,17.81c-3.4.61-7,.23-10.5.23H419q-126.81,0-253.6,0c-3.89,0-7.92.44-11.64-.38-9.92-2.19-15.78-8.45-15.44-18.49C138.59,257.17,144.51,251.41,154,249.5ZM269,774.61c-.14,12.66-7.31,19.69-20.24,19.83q-35.59.38-71.19,0c-13.62-.12-20.51-7.11-20.73-20.53-.2-11.33,0-22.67,0-34,0-11.71-.23-23.43.07-35.14.31-12,7.32-19.09,19.65-19.24q36.18-.43,72.36,0c12.88.14,20,7.25,20.13,19.93Q269.38,740,269,774.61ZM269,629c-.14,13.18-7.39,19.85-21.22,20.06-11.66.18-23.34,0-35,0-12.06,0-24.12.25-36.18-.07-12.35-.33-19.56-7.2-19.71-19.19q-.43-35.13,0-70.28c.15-12.52,7.45-19.35,20.61-19.47q35.6-.32,71.19,0c13,.13,20.19,7.15,20.33,19.75Q269.39,594.42,269,629ZM269,485.11c-.18,11.26-7.57,18.31-19.23,18.46q-36.75.46-73.52,0C164,503.4,157,496.17,156.9,484q-.37-35.14,0-70.29c.15-11.93,7.43-18.75,19.84-19.05s24.89-.07,37.34-.07c11.67,0,23.35-.22,35,.07,12.38.3,19.74,7.12,19.89,19Q269.45,449.39,269,485.11Zm370.6,418.44q-59.56.11-119.12,0-57.81,0-115.61,0c-14.78,0-23.3-6.66-23.43-18s8.51-18.33,23.05-18.33q117.36-.06,234.73,0c14.44,0,23.08,7.17,22.82,18.54C661.76,896.76,653.41,903.52,639.56,903.55Zm43.89-109.33c-3,.61-6.21.28-9.32.28H331.82a69.51,69.51,0,0,1-8.17-.13c-10.17-1.22-17.27-8.94-17.1-18.36s7.43-16.79,17.73-17.77c3.09-.3,6.22-.09,9.34-.09h340c3.5,0,7.13-.37,10.47.39,9.37,2.14,15.17,8,15.23,17.52C699.36,786.09,693.44,792.18,683.45,794.22Z" transform="translate(-25.83 -31)"/></svg>